<?xml version="1.0" ?><!DOCTYPE svg  PUBLIC '-//W3C//DTD SVG 1.1//EN'  'http://www.w3.org/Graphics/SVG/1.1/DTD/svg11.dtd'><svg height="512px" style="shape-rendering:geometricPrecision; text-rendering:geometricPrecision; image-rendering:optimizeQuality; fill-rule:evenodd; clip-rule:evenodd" viewBox="0 0 78.4484 78.4484" width="512px" xml:space="preserve" xmlns="http://www.w3.org/2000/svg" xmlns:xlink="http://www.w3.org/1999/xlink"><defs><style type="text/css">
   <![CDATA[
    .fil5 {fill:none}
    .fil4 {fill:#121212}
    .fil0 {fill:#212121}
    .fil1 {fill:#424242}
    .fil2 {fill:#595959}
    .fil3 {fill:#636363}
   ]]>
  </style></defs><g id="Layer_x0020_1"><g id="_133654008"><g><rect class="fil0" height="59.3575" id="_133624272" rx="0.65374" ry="0.65374" width="34.8817" x="21.6551" y="9.54546"/><rect class="fil1" height="44.9945" id="_133623912" width="30.778" x="23.927" y="15.0415"/><polygon class="fil2" id="_133622976" points="28.9586,15.0415 54.7049,15.0415 54.7049,59.6355 "/><rect class="fil1" height="2.34545" id="_133622904" rx="0.326864" ry="0.326864" width="5.55249" x="36.6132" y="63.37"/><rect class="fil0" height="13.2638" id="_133622928" width="0.476764" x="56.2729" y="16.324"/><rect class="fil0" height="4.16967" id="_133623168" width="0.476764" x="56.3165" y="37.1394"/></g><g><circle class="fil1" id="_133623144" r="0.204289" transform="matrix(1.40955 1.43454 -1.43454 1.40955 28.3413 12.5427)"/><circle class="fil2" id="_133623120" r="0.204289" transform="matrix(1.09102 1.11036 -1.11036 1.09102 28.3413 12.5427)"/><path class="fil3" d="M28.5682 12.3198c0.123082,0.125266 0.121309,0.326611 -0.00395716,0.449693 -0.023188,0.0227899 -0.048982,0.0413089 -0.0764288,0.0555451 -0.0885415,-0.0472929 -0.16526,-0.132601 -0.208017,-0.243462 -0.0476428,-0.123505 -0.0427808,-0.251799 0.00351078,-0.351609 0.100401,-0.0185432 0.207944,0.0115216 0.284892,0.0898325z" id="_133622208"/></g><g><circle class="fil4" cx="38.2862" cy="12.5017" id="_133622640" r="0.0945496"/><circle class="fil4" cx="38.7552" cy="12.5017" id="_133622424" r="0.0945496"/><circle class="fil4" cx="39.2242" cy="12.5017" id="_133622520" r="0.0945496"/><circle class="fil4" cx="39.6932" cy="12.5017" id="_133622544" r="0.0945496"/><circle class="fil4" cx="40.1622" cy="12.5017" id="_133622304" r="0.0945496"/></g><circle class="fil4" cx="38.7552" cy="12.0327" id="_133622376" r="0.0945496"/><circle class="fil4" cx="39.2242" cy="12.0327" id="_133654584" r="0.0945496"/><circle class="fil4" cx="39.6932" cy="12.0327" id="_133654368" r="0.0945496"/><circle class="fil4" cx="38.7552" cy="12.9707" id="_133654488" r="0.0945496"/><circle class="fil4" cx="39.2242" cy="12.9707" id="_133654104" r="0.0945496"/><circle class="fil4" cx="39.6932" cy="12.9707" id="_133653648" r="0.0945496"/></g><rect class="fil5" height="78.4484" width="78.4484"/></g></svg>