<?xml version="1.0" ?><svg viewBox="0 0 64 64" xmlns="http://www.w3.org/2000/svg"><defs><style>.cls-1{fill:#fb7e2d;}.cls-2{fill:#fc9857;}.cls-3{fill:#94aa48;}.cls-4{fill:#c5e260;}.cls-5{fill:#ed1c24;}.cls-6{fill:#f14950;}.cls-7{fill:#999;}.cls-8{fill:#a67c52;}.cls-9{fill:#bc5f22;}</style></defs><title/><g data-name="Layer 10" id="Layer_10"><circle class="cls-1" cx="15" cy="15" r="13"/><circle class="cls-2" cx="15" cy="15" r="9"/><path class="cls-3" d="M43,4h0a6.84,6.84,0,0,1,2,4.83V10H43.83A6.84,6.84,0,0,1,39,8h0a6.84,6.84,0,0,1-2-4.83V2h1.17A6.84,6.84,0,0,1,43,4Z"/><path class="cls-4" d="M42,8.83a6.8,6.8,0,0,0-5-6.57v.91a6.8,6.8,0,0,0,5,6.57Z"/><circle class="cls-2" cx="45" cy="31" r="17"/><path class="cls-4" d="M54,36A26,26,0,0,1,2,36Z"/><path class="cls-5" d="M50,36A22,22,0,0,1,6,36Z"/><path class="cls-6" d="M26.5,57.94A22,22,0,0,0,47,36H6A22,22,0,0,0,26.5,57.94Z"/><circle class="cls-7" cx="13" cy="41" r="2"/><circle class="cls-7" cx="21" cy="51" r="2"/><circle class="cls-7" cx="28" cy="41" r="2"/><circle class="cls-7" cx="35" cy="51" r="2"/><circle class="cls-7" cx="43" cy="41" r="2"/><path class="cls-8" d="M46,14H44V10.24a11.2,11.2,0,0,1,3.29-7.95l1.42,1.42A9.14,9.14,0,0,0,46,10.24Z"/><path class="cls-9" d="M59,31H57A12,12,0,0,0,45,19V17A14,14,0,0,1,59,31Z"/><path class="cls-9" d="M14,23.94a8.36,8.36,0,0,0,2,0V6.06a8.36,8.36,0,0,0-2,0Z"/><path class="cls-9" d="M6,15a8.26,8.26,0,0,0,.06,1H23.94a8.36,8.36,0,0,0,0-2H6.06A8.26,8.26,0,0,0,6,15Z"/><path class="cls-9" d="M20.61,8,8,20.61A8.67,8.67,0,0,0,9.39,22L22,9.39A8.67,8.67,0,0,0,20.61,8Z"/><path class="cls-9" d="M9.39,8A8.67,8.67,0,0,0,8,9.39L20.61,22A8.67,8.67,0,0,0,22,20.61Z"/></g></svg>